<mxfile host="app.diagrams.net" modified="2021-03-06T08:50:35.441Z" agent="5.0 (Windows NT 10.0; WOW64) AppleWebKit/537.36 (KHTML, like Gecko) Chrome/88.0.4324.104 Safari/537.36" etag="DiGI8H25xSCLqZ1x-ViH" version="14.4.4" type="github">
  <diagram id="FC3BT2yvLtEWSpbxcjo_" name="Page-1">
    <mxGraphModel dx="782" dy="412" grid="1" gridSize="10" guides="1" tooltips="1" connect="1" arrows="1" fold="1" page="1" pageScale="1" pageWidth="827" pageHeight="1169" math="0" shadow="0">
      <root>
        <mxCell id="0" />
        <mxCell id="1" parent="0" />
        <mxCell id="pjpSruPqpOVK42qfil5N-29" value="" style="whiteSpace=wrap;html=1;align=center;fillColor=#6666FF;" parent="1" vertex="1">
          <mxGeometry x="129" y="530" width="520" height="320" as="geometry" />
        </mxCell>
        <mxCell id="pjpSruPqpOVK42qfil5N-30" value="Service A" style="rounded=0;whiteSpace=wrap;html=1;fillColor=#B266FF;" parent="1" vertex="1">
          <mxGeometry x="284" y="650" width="90" height="40" as="geometry" />
        </mxCell>
        <mxCell id="pjpSruPqpOVK42qfil5N-31" value="Service A" style="rounded=0;whiteSpace=wrap;html=1;fillColor=#B266FF;" parent="1" vertex="1">
          <mxGeometry x="284" y="710" width="90" height="40" as="geometry" />
        </mxCell>
        <mxCell id="pjpSruPqpOVK42qfil5N-32" value="" style="endArrow=none;dashed=1;html=1;" parent="1" edge="1">
          <mxGeometry width="50" height="50" relative="1" as="geometry">
            <mxPoint x="274" y="630" as="sourcePoint" />
            <mxPoint x="384" y="630" as="targetPoint" />
          </mxGeometry>
        </mxCell>
        <mxCell id="pjpSruPqpOVK42qfil5N-33" value="" style="endArrow=none;dashed=1;html=1;" parent="1" edge="1">
          <mxGeometry width="50" height="50" relative="1" as="geometry">
            <mxPoint x="274" y="630" as="sourcePoint" />
            <mxPoint x="274" y="760" as="targetPoint" />
          </mxGeometry>
        </mxCell>
        <mxCell id="pjpSruPqpOVK42qfil5N-34" value="" style="endArrow=none;dashed=1;html=1;" parent="1" edge="1">
          <mxGeometry width="50" height="50" relative="1" as="geometry">
            <mxPoint x="383" y="630" as="sourcePoint" />
            <mxPoint x="383" y="760" as="targetPoint" />
          </mxGeometry>
        </mxCell>
        <mxCell id="pjpSruPqpOVK42qfil5N-35" value="" style="endArrow=none;dashed=1;html=1;" parent="1" edge="1">
          <mxGeometry width="50" height="50" relative="1" as="geometry">
            <mxPoint x="274" y="763" as="sourcePoint" />
            <mxPoint x="384" y="763" as="targetPoint" />
          </mxGeometry>
        </mxCell>
        <mxCell id="pjpSruPqpOVK42qfil5N-38" value="Service B" style="rounded=0;whiteSpace=wrap;html=1;fillColor=#B266FF;" parent="1" vertex="1">
          <mxGeometry x="404" y="650" width="90" height="40" as="geometry" />
        </mxCell>
        <mxCell id="pjpSruPqpOVK42qfil5N-39" value="Service B" style="rounded=0;whiteSpace=wrap;html=1;fillColor=#B266FF;" parent="1" vertex="1">
          <mxGeometry x="404" y="710" width="90" height="40" as="geometry" />
        </mxCell>
        <mxCell id="pjpSruPqpOVK42qfil5N-40" value="" style="endArrow=none;dashed=1;html=1;" parent="1" edge="1">
          <mxGeometry width="50" height="50" relative="1" as="geometry">
            <mxPoint x="394" y="630" as="sourcePoint" />
            <mxPoint x="504" y="630" as="targetPoint" />
          </mxGeometry>
        </mxCell>
        <mxCell id="pjpSruPqpOVK42qfil5N-42" value="" style="endArrow=none;dashed=1;html=1;" parent="1" edge="1">
          <mxGeometry width="50" height="50" relative="1" as="geometry">
            <mxPoint x="504" y="630" as="sourcePoint" />
            <mxPoint x="504" y="760" as="targetPoint" />
          </mxGeometry>
        </mxCell>
        <mxCell id="pjpSruPqpOVK42qfil5N-43" value="" style="endArrow=none;dashed=1;html=1;" parent="1" edge="1">
          <mxGeometry width="50" height="50" relative="1" as="geometry">
            <mxPoint x="395" y="763" as="sourcePoint" />
            <mxPoint x="505" y="763" as="targetPoint" />
            <Array as="points" />
          </mxGeometry>
        </mxCell>
        <mxCell id="pjpSruPqpOVK42qfil5N-47" value="服务层" style="shape=card;whiteSpace=wrap;html=1;fillColor=#6666FF;" parent="1" vertex="1">
          <mxGeometry x="49" y="530" width="60" height="320" as="geometry" />
        </mxCell>
        <mxCell id="pjpSruPqpOVK42qfil5N-49" value="链路追踪&lt;br&gt;Jaeger" style="rounded=1;whiteSpace=wrap;html=1;" parent="1" vertex="1">
          <mxGeometry x="148" y="620" width="110" height="40" as="geometry" />
        </mxCell>
        <mxCell id="pjpSruPqpOVK42qfil5N-50" value="服务监控&lt;br&gt;Prometheus" style="rounded=1;whiteSpace=wrap;html=1;" parent="1" vertex="1">
          <mxGeometry x="148" y="673" width="110" height="40" as="geometry" />
        </mxCell>
        <mxCell id="pjpSruPqpOVK42qfil5N-51" value="服务熔断&lt;br&gt;Hystrix" style="rounded=1;whiteSpace=wrap;html=1;" parent="1" vertex="1">
          <mxGeometry x="148" y="727" width="110" height="40" as="geometry" />
        </mxCell>
        <mxCell id="pjpSruPqpOVK42qfil5N-52" value="服务限流&lt;br&gt;Hystrix" style="rounded=1;whiteSpace=wrap;html=1;" parent="1" vertex="1">
          <mxGeometry x="148" y="781" width="110" height="40" as="geometry" />
        </mxCell>
        <mxCell id="pjpSruPqpOVK42qfil5N-53" value="服务治理&lt;br&gt;Consul/Etcd/Eureka" style="rounded=1;whiteSpace=wrap;html=1;" parent="1" vertex="1">
          <mxGeometry x="520" y="620" width="110" height="40" as="geometry" />
        </mxCell>
        <mxCell id="pjpSruPqpOVK42qfil5N-54" value="分布式配置&lt;br&gt;Consul/Config" style="rounded=1;whiteSpace=wrap;html=1;" parent="1" vertex="1">
          <mxGeometry x="521" y="673" width="110" height="40" as="geometry" />
        </mxCell>
        <mxCell id="pjpSruPqpOVK42qfil5N-55" value="自动化测试&lt;br&gt;Jenkins" style="rounded=1;whiteSpace=wrap;html=1;" parent="1" vertex="1">
          <mxGeometry x="521" y="727" width="110" height="40" as="geometry" />
        </mxCell>
        <mxCell id="pjpSruPqpOVK42qfil5N-56" value="服务部署&lt;br&gt;Kubernetes" style="rounded=1;whiteSpace=wrap;html=1;" parent="1" vertex="1">
          <mxGeometry x="521" y="781" width="110" height="40" as="geometry" />
        </mxCell>
        <mxCell id="pjpSruPqpOVK42qfil5N-57" value="缓存&lt;br&gt;Redis" style="rounded=1;whiteSpace=wrap;html=1;" parent="1" vertex="1">
          <mxGeometry x="271.5" y="781" width="111" height="40" as="geometry" />
        </mxCell>
        <mxCell id="pjpSruPqpOVK42qfil5N-59" value="消息&lt;br&gt;RabbitMQ/Kafka" style="rounded=1;whiteSpace=wrap;html=1;" parent="1" vertex="1">
          <mxGeometry x="395" y="781" width="111" height="40" as="geometry" />
        </mxCell>
        <mxCell id="pjpSruPqpOVK42qfil5N-63" value="Api Gateway&lt;br&gt;鉴权/日志收集" style="rounded=1;whiteSpace=wrap;html=1;" parent="1" vertex="1">
          <mxGeometry x="148" y="550" width="481" height="60" as="geometry" />
        </mxCell>
        <mxCell id="pjpSruPqpOVK42qfil5N-64" value="" style="whiteSpace=wrap;html=1;align=center;fillColor=#3399FF;" parent="1" vertex="1">
          <mxGeometry x="129" y="420" width="520" height="80" as="geometry" />
        </mxCell>
        <mxCell id="pjpSruPqpOVK42qfil5N-66" value="Http/Https" style="rounded=1;whiteSpace=wrap;html=1;" parent="1" vertex="1">
          <mxGeometry x="529" y="442" width="100" height="40" as="geometry" />
        </mxCell>
        <mxCell id="pjpSruPqpOVK42qfil5N-67" value="Socket" style="rounded=1;whiteSpace=wrap;html=1;" parent="1" vertex="1">
          <mxGeometry x="399" y="442" width="100" height="40" as="geometry" />
        </mxCell>
        <mxCell id="pjpSruPqpOVK42qfil5N-68" value="SLB" style="rounded=1;whiteSpace=wrap;html=1;" parent="1" vertex="1">
          <mxGeometry x="268" y="442" width="106" height="40" as="geometry" />
        </mxCell>
        <mxCell id="pjpSruPqpOVK42qfil5N-69" value="CDN" style="rounded=1;whiteSpace=wrap;html=1;" parent="1" vertex="1">
          <mxGeometry x="148" y="442" width="96" height="40" as="geometry" />
        </mxCell>
        <mxCell id="pjpSruPqpOVK42qfil5N-71" value="" style="endArrow=none;dashed=1;html=1;" parent="1" edge="1">
          <mxGeometry width="50" height="50" relative="1" as="geometry">
            <mxPoint x="394" y="630" as="sourcePoint" />
            <mxPoint x="394" y="760" as="targetPoint" />
          </mxGeometry>
        </mxCell>
        <mxCell id="pjpSruPqpOVK42qfil5N-72" value="通讯层" style="shape=card;whiteSpace=wrap;html=1;fillColor=#3399FF;" parent="1" vertex="1">
          <mxGeometry x="49" y="420" width="60" height="80" as="geometry" />
        </mxCell>
        <mxCell id="pjpSruPqpOVK42qfil5N-73" value="Service Cluster" style="rounded=0;whiteSpace=wrap;html=1;" parent="1" vertex="1">
          <mxGeometry x="689" y="631" width="80" height="40" as="geometry" />
        </mxCell>
        <mxCell id="pjpSruPqpOVK42qfil5N-79" value="DB Cluster" style="shape=datastore;whiteSpace=wrap;html=1;" parent="1" vertex="1">
          <mxGeometry x="689" y="761" width="80" height="50" as="geometry" />
        </mxCell>
        <mxCell id="pjpSruPqpOVK42qfil5N-81" value="Redis Cache Cluster" style="shape=datastore;whiteSpace=wrap;html=1;" parent="1" vertex="1">
          <mxGeometry x="689" y="691" width="80" height="50" as="geometry" />
        </mxCell>
        <mxCell id="pjpSruPqpOVK42qfil5N-83" value="数据层" style="shape=card;whiteSpace=wrap;html=1;fillColor=#FFB366;" parent="1" vertex="1">
          <mxGeometry x="49" y="880" width="60" height="80" as="geometry" />
        </mxCell>
        <mxCell id="pjpSruPqpOVK42qfil5N-84" value="" style="rounded=0;whiteSpace=wrap;html=1;fillColor=#FFB366;" parent="1" vertex="1">
          <mxGeometry x="129" y="880" width="520" height="80" as="geometry" />
        </mxCell>
        <mxCell id="pjpSruPqpOVK42qfil5N-86" value="MySQL" style="shape=datastore;whiteSpace=wrap;html=1;" parent="1" vertex="1">
          <mxGeometry x="179" y="895" width="79.5" height="50" as="geometry" />
        </mxCell>
        <mxCell id="pjpSruPqpOVK42qfil5N-87" value="MongoDB" style="shape=datastore;whiteSpace=wrap;html=1;" parent="1" vertex="1">
          <mxGeometry x="289" y="895" width="79.5" height="50" as="geometry" />
        </mxCell>
        <mxCell id="pjpSruPqpOVK42qfil5N-88" value="HDFS" style="shape=datastore;whiteSpace=wrap;html=1;" parent="1" vertex="1">
          <mxGeometry x="400" y="895" width="79.5" height="50" as="geometry" />
        </mxCell>
        <mxCell id="pjpSruPqpOVK42qfil5N-89" value="Elasticsearch" style="shape=datastore;whiteSpace=wrap;html=1;" parent="1" vertex="1">
          <mxGeometry x="510" y="895" width="79.5" height="50" as="geometry" />
        </mxCell>
        <mxCell id="pjpSruPqpOVK42qfil5N-90" value="" style="whiteSpace=wrap;html=1;align=center;fillColor=#9999FF;" parent="1" vertex="1">
          <mxGeometry x="129" y="310" width="520" height="80" as="geometry" />
        </mxCell>
        <mxCell id="pjpSruPqpOVK42qfil5N-91" value="RestfulApi" style="rounded=1;whiteSpace=wrap;html=1;" parent="1" vertex="1">
          <mxGeometry x="529" y="332" width="100" height="40" as="geometry" />
        </mxCell>
        <mxCell id="pjpSruPqpOVK42qfil5N-92" value="小程序" style="rounded=1;whiteSpace=wrap;html=1;" parent="1" vertex="1">
          <mxGeometry x="399" y="332" width="100" height="40" as="geometry" />
        </mxCell>
        <mxCell id="pjpSruPqpOVK42qfil5N-93" value="App" style="rounded=1;whiteSpace=wrap;html=1;" parent="1" vertex="1">
          <mxGeometry x="268" y="332" width="106" height="40" as="geometry" />
        </mxCell>
        <mxCell id="pjpSruPqpOVK42qfil5N-94" value="Web" style="rounded=1;whiteSpace=wrap;html=1;" parent="1" vertex="1">
          <mxGeometry x="148" y="332" width="96" height="40" as="geometry" />
        </mxCell>
        <mxCell id="pjpSruPqpOVK42qfil5N-95" value="展现层" style="shape=card;whiteSpace=wrap;html=1;fillColor=#9999FF;" parent="1" vertex="1">
          <mxGeometry x="49" y="310" width="60" height="80" as="geometry" />
        </mxCell>
        <mxCell id="pjpSruPqpOVK42qfil5N-97" value="" style="rounded=1;arcSize=10;dashed=1;strokeColor=#000000;fillColor=none;gradientColor=none;dashPattern=8 3 1 3;strokeWidth=2;" parent="1" vertex="1">
          <mxGeometry x="679" y="621" width="100" height="200" as="geometry" />
        </mxCell>
        <mxCell id="pjpSruPqpOVK42qfil5N-98" value="" style="endArrow=classic;html=1;entryX=0.01;entryY=0.5;entryDx=0;entryDy=0;entryPerimeter=0;" parent="1" target="pjpSruPqpOVK42qfil5N-97" edge="1">
          <mxGeometry width="50" height="50" relative="1" as="geometry">
            <mxPoint x="504" y="721" as="sourcePoint" />
            <mxPoint x="673" y="721" as="targetPoint" />
          </mxGeometry>
        </mxCell>
      </root>
    </mxGraphModel>
  </diagram>
</mxfile>
